<svg data-name="Layer 1" xmlns="http://www.w3.org/2000/svg" width="743.13" height="477.701" viewBox="0 0 743.13 477.701"><path d="M628.15 241.296l.966 123.01a6.508 6.508 0 01-6.448 6.55l-14.76.116a6.508 6.508 0 01-6.55-6.448l-.967-123.01a6.508 6.508 0 016.45-6.551l14.758-.116a6.508 6.508 0 016.55 6.449z" fill="#193055"/><path fill="#3f3d56" d="M419.097 475.461H743.13v2.241H419.097z"/><path d="M575.264 476.714h-14.76a6.508 6.508 0 01-6.5-6.5V347.2a6.508 6.508 0 016.5-6.5h14.76a6.508 6.508 0 016.5 6.5v123.014a6.508 6.508 0 01-6.5 6.5zm29.192 0h-14.76a6.508 6.508 0 01-6.5-6.5V347.2a6.508 6.508 0 016.5-6.5h14.76a6.508 6.508 0 016.5 6.5v123.014a6.508 6.508 0 01-6.5 6.5z" fill="#2f2e41"/><circle cx="582.48" cy="145.403" r="53.519" fill="#193055"/><path d="M574.605 165.239l.055-2c-3.72-.104-7-.337-9.466-2.138a6.148 6.148 0 01-2.38-4.528 3.514 3.514 0 011.152-2.895c1.636-1.382 4.269-.934 6.188-.055l1.655.76-3.174-23.191-1.981.271 2.7 19.727c-2.608-.767-5.024-.437-6.68.96a5.471 5.471 0 00-1.86 4.493 8.133 8.133 0 003.2 6.073c3.168 2.315 7.283 2.43 10.59 2.523zm-28.522-32.074h10.771v2h-10.771zm34 0h10.771v2h-10.771z" fill="#2f2e41"/><path d="M636.402 278.892h-44v-49a22 22 0 0144 0z" fill="#ccc"/><path d="M554.717 248.156l-92.074 81.576a6.508 6.508 0 01-9.176-.554l-9.788-11.047a6.508 6.508 0 01.555-9.176l92.075-81.576a6.508 6.508 0 019.175.555l9.788 11.047a6.508 6.508 0 01-.555 9.176z" fill="#193055"/><path d="M531.805 279.086l-28.919-33.162 36.93-32.205a22 22 0 0128.919 33.162z" fill="#ccc"/><path fill="#193055" d="M0 0h233.593v157H0z"/><path fill="#ccc" d="M2 8.349h2v-5h5v-2H2v7zm217.993-7h12.412v2h-12.412zm-49.645 0h12.412v2h-12.412zm24.823 0h12.412v2h-12.412zm74.468 0h12.412v2h-12.412zm24.823 0h12.412v2h-12.412zm-49.646 0h12.412v2h-12.412zm-198.582 0h12.412v2H46.234zm-24.823 0h12.412v2H21.411zm49.646 0h12.412v2H71.057zm49.645 0h12.412v2h-12.412zm-24.822 0h12.412v2H95.88zm49.645 0h12.412v2h-12.412zm173.759 0h12.412v2h-12.412zm24.823 0v2h5v5h2v-7h-7zm5 168.851h2v12.45h-2zm0-24.9h2v12.45h-2zm0-49.801h2v12.45h-2zm0-49.8h2v12.45h-2zm0 24.901h2v12.449h-2zm0 49.799h2v12.45h-2zm0 74.701h2v12.45h-2zm0-174.301h2v12.45h-2zm0 204.201h-5v2h7v-7h-2v5zm-54.645 0h12.412v2h-12.412zM95.88 225h12.412v2H95.88zm-49.646 0h12.412v2H46.234zm24.823 0h12.412v2H71.057zm-49.646 0h12.412v2H21.411zm198.582 0h12.412v2h-12.412zm49.646 0h12.412v2h-12.412zm-24.823 0h12.412v2h-12.412zm74.468 0h12.412v2h-12.412zm-148.936 0h12.412v2h-12.412zm-24.823 0h12.412v2h-12.412zm-24.823 0h12.412v2h-12.412zm74.469 0h12.412v2h-12.412zM4 220H2v7h7v-2H4v-5zM2 70.599h2v12.45H2zm0 24.9h2v12.45H2zm0-74.7h2v12.45H2zm0 24.899h2v12.45H2zM2 195.1h2v12.45H2zm0-24.901h2v12.45H2zM2 145.3h2v12.449H2zm0-24.901h2v12.45H2z"/><path fill="#3f3d56" d="M399.14 258.684l-1.992.197.832 8.349-95.248-83.96 8.388-.222-.055-2.001-12.007.319 1.191 11.951 1.992-.197-.834-8.353 95.253 83.966-8.391.22.054 2.001 12.006-.318-1.189-11.952z"/><circle cx="349.695" cy="226" r="11" fill="#3f3d56"/><circle cx="371.074" cy="244.846" r="6" fill="#ccc"/><circle cx="327.565" cy="206.493" r="6" fill="#ccc"/><path d="M615.793 363.58h-67.062a6.508 6.508 0 01-6.5-6.5V214.605a6.508 6.508 0 016.5-6.5h67.062a6.508 6.508 0 016.5 6.5V357.08a6.508 6.508 0 01-6.5 6.5z" fill="#ccc"/><path d="M615.472 163.719c-4.897-1.911-7.649-6.705-9.029-11.535-1.636-5.728-1.38-11.584-1.312-17.474.074-6.518-.138-13.342-3.243-19.239-2.831-5.376-7.886-9.032-13.46-11.188-13.583-5.253-28.439-.819-42.512-2.224-6.532-.652-13.313-2.495-18.55-6.615-4.541-3.574-8.203-8.949-8.766-14.81-1.235-12.873 12.566-21.093 24.14-19.5a1.554 1.554 0 001.845-1.048 1.51 1.51 0 00-1.048-1.846c-10.87-1.495-23.542 3.973-27.134 14.985-1.918 5.878-.535 12.329 2.702 17.47a29.683 29.683 0 0015.053 11.805c6.651 2.477 13.913 3.018 20.955 2.872 8.193-.17 16.472-1.367 24.643-.222 6.12.857 12.374 3.202 16.677 7.789 4.767 5.083 5.635 12.14 5.704 18.818.066 6.392-.48 12.773.878 19.077 1.145 5.313 3.56 10.625 8.072 13.886a15.918 15.918 0 003.587 1.891c1.8.703 2.58-2.197.798-2.892z" fill="#2f2e41"/></svg>